<mxfile host="app.diagrams.net" modified="2021-02-20T10:05:46.221Z" agent="5.0 (Macintosh; Intel Mac OS X 10_15_7) AppleWebKit/537.36 (KHTML, like Gecko) Chrome/88.0.4324.182 Safari/537.36" etag="aIqN778wQkAD3n0NPbOJ" version="14.4.2" type="github">
  <diagram id="wSD4uHWvOkjwFn3RLs6-" name="Page-1">
    <mxGraphModel dx="2253" dy="867" grid="1" gridSize="10" guides="1" tooltips="1" connect="1" arrows="1" fold="1" page="1" pageScale="1" pageWidth="827" pageHeight="1169" math="0" shadow="0">
      <root>
        <mxCell id="0" />
        <mxCell id="1" parent="0" />
        <mxCell id="s3CcLmTtF7bqVoPlMLMT-32" style="edgeStyle=none;rounded=0;orthogonalLoop=1;jettySize=auto;html=1;exitX=1;exitY=0.5;exitDx=0;exitDy=0;entryX=0;entryY=0.5;entryDx=0;entryDy=0;" edge="1" parent="1" source="s3CcLmTtF7bqVoPlMLMT-1" target="s3CcLmTtF7bqVoPlMLMT-2">
          <mxGeometry relative="1" as="geometry" />
        </mxCell>
        <mxCell id="s3CcLmTtF7bqVoPlMLMT-1" value="廠商_A" style="rounded=1;whiteSpace=wrap;html=1;" vertex="1" parent="1">
          <mxGeometry x="160" y="240" width="120" height="60" as="geometry" />
        </mxCell>
        <mxCell id="s3CcLmTtF7bqVoPlMLMT-35" style="edgeStyle=none;rounded=0;orthogonalLoop=1;jettySize=auto;html=1;exitX=1;exitY=0.5;exitDx=0;exitDy=0;entryX=0;entryY=0.5;entryDx=0;entryDy=0;" edge="1" parent="1" source="s3CcLmTtF7bqVoPlMLMT-2" target="s3CcLmTtF7bqVoPlMLMT-3">
          <mxGeometry relative="1" as="geometry" />
        </mxCell>
        <mxCell id="s3CcLmTtF7bqVoPlMLMT-36" style="edgeStyle=none;rounded=0;orthogonalLoop=1;jettySize=auto;html=1;exitX=1;exitY=0.5;exitDx=0;exitDy=0;entryX=0;entryY=0.5;entryDx=0;entryDy=0;" edge="1" parent="1" source="s3CcLmTtF7bqVoPlMLMT-2" target="s3CcLmTtF7bqVoPlMLMT-7">
          <mxGeometry relative="1" as="geometry" />
        </mxCell>
        <mxCell id="s3CcLmTtF7bqVoPlMLMT-37" style="edgeStyle=none;rounded=0;orthogonalLoop=1;jettySize=auto;html=1;exitX=1;exitY=0.5;exitDx=0;exitDy=0;entryX=0;entryY=0.5;entryDx=0;entryDy=0;" edge="1" parent="1" source="s3CcLmTtF7bqVoPlMLMT-2" target="s3CcLmTtF7bqVoPlMLMT-6">
          <mxGeometry relative="1" as="geometry" />
        </mxCell>
        <mxCell id="s3CcLmTtF7bqVoPlMLMT-38" style="edgeStyle=none;rounded=0;orthogonalLoop=1;jettySize=auto;html=1;exitX=1;exitY=0.5;exitDx=0;exitDy=0;entryX=0;entryY=0.5;entryDx=0;entryDy=0;" edge="1" parent="1" source="s3CcLmTtF7bqVoPlMLMT-2" target="s3CcLmTtF7bqVoPlMLMT-8">
          <mxGeometry relative="1" as="geometry" />
        </mxCell>
        <mxCell id="s3CcLmTtF7bqVoPlMLMT-2" value="第三方平台&lt;br&gt;(e.g., 聯盟網、通路王)" style="rounded=1;whiteSpace=wrap;html=1;" vertex="1" parent="1">
          <mxGeometry x="380" y="380" width="130" height="60" as="geometry" />
        </mxCell>
        <mxCell id="s3CcLmTtF7bqVoPlMLMT-3" value="推廣者_1" style="rounded=1;whiteSpace=wrap;html=1;" vertex="1" parent="1">
          <mxGeometry x="600" y="230" width="120" height="60" as="geometry" />
        </mxCell>
        <mxCell id="s3CcLmTtF7bqVoPlMLMT-34" style="edgeStyle=none;rounded=0;orthogonalLoop=1;jettySize=auto;html=1;exitX=1;exitY=0.5;exitDx=0;exitDy=0;entryX=0;entryY=0.5;entryDx=0;entryDy=0;" edge="1" parent="1" source="s3CcLmTtF7bqVoPlMLMT-4" target="s3CcLmTtF7bqVoPlMLMT-2">
          <mxGeometry relative="1" as="geometry" />
        </mxCell>
        <mxCell id="s3CcLmTtF7bqVoPlMLMT-4" value="廠商_C" style="rounded=1;whiteSpace=wrap;html=1;" vertex="1" parent="1">
          <mxGeometry x="160" y="525" width="120" height="60" as="geometry" />
        </mxCell>
        <mxCell id="s3CcLmTtF7bqVoPlMLMT-33" style="edgeStyle=none;rounded=0;orthogonalLoop=1;jettySize=auto;html=1;exitX=1;exitY=0.5;exitDx=0;exitDy=0;entryX=0;entryY=0.5;entryDx=0;entryDy=0;" edge="1" parent="1" source="s3CcLmTtF7bqVoPlMLMT-5" target="s3CcLmTtF7bqVoPlMLMT-2">
          <mxGeometry relative="1" as="geometry" />
        </mxCell>
        <mxCell id="s3CcLmTtF7bqVoPlMLMT-5" value="廠商_B" style="rounded=1;whiteSpace=wrap;html=1;" vertex="1" parent="1">
          <mxGeometry x="160" y="380" width="120" height="60" as="geometry" />
        </mxCell>
        <mxCell id="s3CcLmTtF7bqVoPlMLMT-6" value="推廣者_3" style="rounded=1;whiteSpace=wrap;html=1;" vertex="1" parent="1">
          <mxGeometry x="600" y="465" width="120" height="60" as="geometry" />
        </mxCell>
        <mxCell id="s3CcLmTtF7bqVoPlMLMT-7" value="推廣者_2" style="rounded=1;whiteSpace=wrap;html=1;" vertex="1" parent="1">
          <mxGeometry x="600" y="340" width="120" height="60" as="geometry" />
        </mxCell>
        <mxCell id="s3CcLmTtF7bqVoPlMLMT-8" value="推廣者_4" style="rounded=1;whiteSpace=wrap;html=1;" vertex="1" parent="1">
          <mxGeometry x="600" y="585" width="120" height="60" as="geometry" />
        </mxCell>
        <mxCell id="s3CcLmTtF7bqVoPlMLMT-17" style="rounded=0;orthogonalLoop=1;jettySize=auto;html=1;exitX=1;exitY=0.5;exitDx=0;exitDy=0;entryX=0;entryY=0.5;entryDx=0;entryDy=0;" edge="1" parent="1" source="s3CcLmTtF7bqVoPlMLMT-9" target="s3CcLmTtF7bqVoPlMLMT-11">
          <mxGeometry relative="1" as="geometry" />
        </mxCell>
        <mxCell id="s3CcLmTtF7bqVoPlMLMT-21" style="edgeStyle=none;rounded=0;orthogonalLoop=1;jettySize=auto;html=1;exitX=1;exitY=0.5;exitDx=0;exitDy=0;entryX=0;entryY=0.5;entryDx=0;entryDy=0;" edge="1" parent="1" source="s3CcLmTtF7bqVoPlMLMT-9" target="s3CcLmTtF7bqVoPlMLMT-15">
          <mxGeometry relative="1" as="geometry" />
        </mxCell>
        <mxCell id="s3CcLmTtF7bqVoPlMLMT-22" style="edgeStyle=none;rounded=0;orthogonalLoop=1;jettySize=auto;html=1;exitX=1;exitY=0.5;exitDx=0;exitDy=0;entryX=0;entryY=0.5;entryDx=0;entryDy=0;" edge="1" parent="1" source="s3CcLmTtF7bqVoPlMLMT-9" target="s3CcLmTtF7bqVoPlMLMT-14">
          <mxGeometry relative="1" as="geometry" />
        </mxCell>
        <mxCell id="s3CcLmTtF7bqVoPlMLMT-23" style="edgeStyle=none;rounded=0;orthogonalLoop=1;jettySize=auto;html=1;exitX=1;exitY=0.5;exitDx=0;exitDy=0;entryX=0;entryY=0.5;entryDx=0;entryDy=0;" edge="1" parent="1" source="s3CcLmTtF7bqVoPlMLMT-9" target="s3CcLmTtF7bqVoPlMLMT-16">
          <mxGeometry relative="1" as="geometry" />
        </mxCell>
        <mxCell id="s3CcLmTtF7bqVoPlMLMT-9" value="廠商_A" style="rounded=1;whiteSpace=wrap;html=1;" vertex="1" parent="1">
          <mxGeometry x="-550" y="250" width="120" height="60" as="geometry" />
        </mxCell>
        <mxCell id="s3CcLmTtF7bqVoPlMLMT-11" value="推廣者_1" style="rounded=1;whiteSpace=wrap;html=1;" vertex="1" parent="1">
          <mxGeometry x="-110" y="230" width="120" height="60" as="geometry" />
        </mxCell>
        <mxCell id="s3CcLmTtF7bqVoPlMLMT-28" style="edgeStyle=none;rounded=0;orthogonalLoop=1;jettySize=auto;html=1;exitX=1;exitY=0.5;exitDx=0;exitDy=0;entryX=0;entryY=0.5;entryDx=0;entryDy=0;" edge="1" parent="1" source="s3CcLmTtF7bqVoPlMLMT-12" target="s3CcLmTtF7bqVoPlMLMT-11">
          <mxGeometry relative="1" as="geometry" />
        </mxCell>
        <mxCell id="s3CcLmTtF7bqVoPlMLMT-29" style="edgeStyle=none;rounded=0;orthogonalLoop=1;jettySize=auto;html=1;exitX=1;exitY=0.5;exitDx=0;exitDy=0;entryX=0;entryY=0.5;entryDx=0;entryDy=0;" edge="1" parent="1" source="s3CcLmTtF7bqVoPlMLMT-12" target="s3CcLmTtF7bqVoPlMLMT-15">
          <mxGeometry relative="1" as="geometry" />
        </mxCell>
        <mxCell id="s3CcLmTtF7bqVoPlMLMT-30" style="edgeStyle=none;rounded=0;orthogonalLoop=1;jettySize=auto;html=1;exitX=1;exitY=0.5;exitDx=0;exitDy=0;entryX=0;entryY=0.5;entryDx=0;entryDy=0;" edge="1" parent="1" source="s3CcLmTtF7bqVoPlMLMT-12" target="s3CcLmTtF7bqVoPlMLMT-14">
          <mxGeometry relative="1" as="geometry" />
        </mxCell>
        <mxCell id="s3CcLmTtF7bqVoPlMLMT-31" style="edgeStyle=none;rounded=0;orthogonalLoop=1;jettySize=auto;html=1;exitX=1;exitY=0.5;exitDx=0;exitDy=0;entryX=0;entryY=0.5;entryDx=0;entryDy=0;" edge="1" parent="1" source="s3CcLmTtF7bqVoPlMLMT-12" target="s3CcLmTtF7bqVoPlMLMT-16">
          <mxGeometry relative="1" as="geometry" />
        </mxCell>
        <mxCell id="s3CcLmTtF7bqVoPlMLMT-12" value="廠商_C" style="rounded=1;whiteSpace=wrap;html=1;" vertex="1" parent="1">
          <mxGeometry x="-550" y="535" width="120" height="60" as="geometry" />
        </mxCell>
        <mxCell id="s3CcLmTtF7bqVoPlMLMT-24" style="edgeStyle=none;rounded=0;orthogonalLoop=1;jettySize=auto;html=1;exitX=1;exitY=0.5;exitDx=0;exitDy=0;entryX=0;entryY=0.5;entryDx=0;entryDy=0;" edge="1" parent="1" source="s3CcLmTtF7bqVoPlMLMT-13" target="s3CcLmTtF7bqVoPlMLMT-11">
          <mxGeometry relative="1" as="geometry" />
        </mxCell>
        <mxCell id="s3CcLmTtF7bqVoPlMLMT-25" style="edgeStyle=none;rounded=0;orthogonalLoop=1;jettySize=auto;html=1;exitX=1;exitY=0.5;exitDx=0;exitDy=0;entryX=0;entryY=0.5;entryDx=0;entryDy=0;" edge="1" parent="1" source="s3CcLmTtF7bqVoPlMLMT-13" target="s3CcLmTtF7bqVoPlMLMT-15">
          <mxGeometry relative="1" as="geometry" />
        </mxCell>
        <mxCell id="s3CcLmTtF7bqVoPlMLMT-26" style="edgeStyle=none;rounded=0;orthogonalLoop=1;jettySize=auto;html=1;exitX=1;exitY=0.5;exitDx=0;exitDy=0;entryX=0;entryY=0.5;entryDx=0;entryDy=0;" edge="1" parent="1" source="s3CcLmTtF7bqVoPlMLMT-13" target="s3CcLmTtF7bqVoPlMLMT-14">
          <mxGeometry relative="1" as="geometry" />
        </mxCell>
        <mxCell id="s3CcLmTtF7bqVoPlMLMT-27" style="edgeStyle=none;rounded=0;orthogonalLoop=1;jettySize=auto;html=1;exitX=1;exitY=0.5;exitDx=0;exitDy=0;entryX=0;entryY=0.5;entryDx=0;entryDy=0;" edge="1" parent="1" source="s3CcLmTtF7bqVoPlMLMT-13" target="s3CcLmTtF7bqVoPlMLMT-16">
          <mxGeometry relative="1" as="geometry" />
        </mxCell>
        <mxCell id="s3CcLmTtF7bqVoPlMLMT-13" value="廠商_B" style="rounded=1;whiteSpace=wrap;html=1;" vertex="1" parent="1">
          <mxGeometry x="-550" y="390" width="120" height="60" as="geometry" />
        </mxCell>
        <mxCell id="s3CcLmTtF7bqVoPlMLMT-14" value="推廣者_3" style="rounded=1;whiteSpace=wrap;html=1;" vertex="1" parent="1">
          <mxGeometry x="-110" y="475" width="120" height="60" as="geometry" />
        </mxCell>
        <mxCell id="s3CcLmTtF7bqVoPlMLMT-15" value="推廣者_2" style="rounded=1;whiteSpace=wrap;html=1;" vertex="1" parent="1">
          <mxGeometry x="-110" y="350" width="120" height="60" as="geometry" />
        </mxCell>
        <mxCell id="s3CcLmTtF7bqVoPlMLMT-16" value="推廣者_4" style="rounded=1;whiteSpace=wrap;html=1;" vertex="1" parent="1">
          <mxGeometry x="-110" y="595" width="120" height="60" as="geometry" />
        </mxCell>
      </root>
    </mxGraphModel>
  </diagram>
</mxfile>
